<?xml version="1.0" encoding="utf-8"?>
<svg width="396" height="88" viewBox="0 0 396 88" fill="none" xmlns="http://www.w3.org/2000/svg">
  <g clip-path="url(#clip0_522_170)">
    <path d="M24.6518 23.9324H54.3078L52.6808 0H0V87.6941H24.6518V59.3969H48.8105V35.4645H24.6518V23.9324Z" style="fill: rgb(0, 0, 0);"/>
    <path d="M136.62 43.971C136.62 20.2867 117.934 1.23999 94.8846 1.23999C71.8352 1.23999 53.2725 20.2867 53.2725 43.971C53.2725 67.6554 71.9585 86.7021 94.8846 86.7021C117.811 86.7021 136.62 67.6554 136.62 43.971ZM102.502 61.5049C102.502 65.7706 99.3959 68.8954 95.2791 68.8954C91.1622 68.8954 87.9328 65.7706 87.9328 61.5049V26.4124C87.9328 22.1467 91.039 19.0219 95.1558 19.0219C99.2727 19.0219 102.502 22.1467 102.502 26.4124V61.5049Z" style="fill: rgb(0, 0, 0);"/>
    <path d="M200.517 0H173.499L163.022 19.0467L152.94 0H124.911L149.464 42.483L123.555 87.6941H150.696L162.776 65.5226L174.855 87.6941H202.761L176.482 42.2102L200.517 0Z" style="fill: rgb(0, 0, 0);"/>
    <path d="M350.104 0H244.989C218.464 0 199.285 18.4267 199.285 43.8471C199.285 69.2675 218.464 87.6941 244.989 87.6941H350.104C376.63 87.6941 395.809 69.2675 395.809 43.8471C395.809 18.4267 376.63 0 350.104 0ZM246.493 71.5491C231.184 71.5491 222.211 60.6369 222.211 43.9711C222.211 27.3052 231.307 16.145 246.493 16.145C261.678 16.145 270.775 27.0572 270.775 43.9711C270.775 60.8849 261.802 71.5491 246.493 71.5491ZM322.346 70.9043H308.887L290.2 39.0854H289.831V70.9043H277.505V16.7651H290.965L309.651 48.3359H310.02V16.7651H322.346V70.9043ZM367.311 70.9043H331.566V16.7651H366.695L367.952 27.9252H344.41V38.0686H365.462V49.2288H344.41V59.7441H368.568L367.311 70.9043Z" style="fill: rgb(0, 0, 0);"/>
    <path d="M246.493 27.6772C240.379 27.6772 237.027 32.0669 237.027 40.2014V47.4679C237.027 55.6025 240.379 59.9921 246.493 59.9921C252.607 59.9921 255.959 55.6025 255.959 47.4679V40.2014C255.959 32.0669 252.607 27.6772 246.493 27.6772Z" style="fill: rgb(0, 0, 0);"/>
  </g>
  <defs>
    <clipPath id="clip0_522_170">
      <rect width="395.809" height="87.6941" fill="white"/>
    </clipPath>
  </defs>
</svg>